<?xml version="1.0"?>
<svg xmlns="http://www.w3.org/2000/svg" xmlns:xlink="http://www.w3.org/1999/xlink" xmlns:svgjs="http://svgjs.com/svgjs" version="1.1" width="512" height="512" x="0" y="0" viewBox="0 0 64 64" style="enable-background:new 0 0 512 512" xml:space="preserve" class=""><g><path xmlns="http://www.w3.org/2000/svg" d="m62 16a4 4 0 0 0 -4-4h-52a4 4 0 0 0 -4 4v32a4 4 0 0 0 4 4h52a4 4 0 0 0 4-4z" fill="#6d6d6d" data-original="#6d6d6d" style=""/><path xmlns="http://www.w3.org/2000/svg" d="m58 12h-52a3.955 3.955 0 0 0 -1.914.508 40 40 0 0 0 39.914 37.492h17.445a3.955 3.955 0 0 0 .555-2v-32a4 4 0 0 0 -4-4z" fill="#848484" data-original="#848484" style=""/><path xmlns="http://www.w3.org/2000/svg" d="m2 16h60v30h-60z" fill="#43fff1" data-original="#43fff1" style=""/><path xmlns="http://www.w3.org/2000/svg" d="m4.464 16a40.03 40.03 0 0 0 22.107 30h35.429v-30z" fill="#99fff7" data-original="#99fff7" style="" class=""/><rect xmlns="http://www.w3.org/2000/svg" fill="#4d4d4d" height="4" rx="2" width="22" x="21" y="58" data-original="#4d4d4d" style=""/><path xmlns="http://www.w3.org/2000/svg" d="m27 52h10v6h-10z" fill="#4d4d4d" data-original="#4d4d4d" style=""/><path xmlns="http://www.w3.org/2000/svg" d="m27 54h10v4h-10z" fill="#606060" data-original="#606060" style=""/><path xmlns="http://www.w3.org/2000/svg" d="m53 2a4 4 0 0 0 -4 4v34a4 4 0 0 1 -4 4h-30a4 4 0 0 1 -4-4h4v-34a4 4 0 0 1 4-4z" fill="#cb8d8d" data-original="#a0a0a0" style="" class=""/><path xmlns="http://www.w3.org/2000/svg" d="m17.248 2.42a40.023 40.023 0 0 0 31.752 34.78v-31.2a4 4 0 0 1 4-4h-34a3.955 3.955 0 0 0 -1.752.42z" fill="#dda9a9" data-original="#b7b7b7" style="" class=""/><path xmlns="http://www.w3.org/2000/svg" d="m57 6h-8a4 4 0 0 1 8 0z" fill="#6d6d6d" data-original="#6d6d6d" style=""/><path xmlns="http://www.w3.org/2000/svg" d="m19 6h26v6h-26z" fill="#f9e958" data-original="#f9e958" style="" class=""/><path xmlns="http://www.w3.org/2000/svg" d="m38 25-6-8.001-6.001 8 3.001.001v6h6v-6z" fill="#00b250" data-original="#00b250" style="" class=""/><g xmlns="http://www.w3.org/2000/svg" fill="#6d6d6d"><path d="m42 36h-20a1 1 0 0 1 -1-1v-5h2v4h18v-4h2v5a1 1 0 0 1 -1 1z" fill="#6d6d6d" data-original="#6d6d6d" style=""/><path d="m45 44h-30a4 4 0 0 1 -4-4h30a4 4 0 0 0 4 4z" fill="#6d6d6d" data-original="#6d6d6d" style=""/></g></g></svg>
