<?xml version="1.0"?>
<svg xmlns="http://www.w3.org/2000/svg" xmlns:xlink="http://www.w3.org/1999/xlink" xmlns:svgjs="http://svgjs.com/svgjs" version="1.1" width="512" height="512" x="0" y="0" viewBox="0 0 45.791 45.791" style="enable-background:new 0 0 512 512" xml:space="preserve" class=""><g>
<g xmlns="http://www.w3.org/2000/svg">
	<path style="" d="M19.988,22.584L3.483,5.346L3.764,0l18.311,20.273L19.988,22.584z M19.901,22.68L3.402,6.883   L3.334,8.172l15.59,15.59L19.901,22.68z M24.839,29.677l3.01-3.013l-1.027-1.139l-3.065,3.065L24.839,29.677z M30.863,25.377   l-7.741,7.742l0.859,0.859l7.741-7.742L30.863,25.377z M42.763,44.445l-0.574,0.574c-1.029,1.027-2.698,1.027-3.729,0l-0.145-0.145   c-0.201-0.203-0.354-0.434-0.475-0.675l-0.101,0.099l-11.18-11.181l4.301-4.301l11.182,11.182l-0.1,0.1   c0.242,0.123,0.473,0.273,0.674,0.476l0.145,0.146C43.789,41.746,43.789,43.415,42.763,44.445z M31.505,32.329   c-0.434-0.435-1.141-0.435-1.576,0c-0.436,0.437-0.436,1.142,0,1.578c0.436,0.435,1.143,0.435,1.576-0.001   C31.94,33.47,31.94,32.763,31.505,32.329z M34.946,35.77c-0.436-0.437-1.143-0.437-1.577-0.001c-0.435,0.435-0.435,1.142,0,1.578   c0.435,0.435,1.142,0.435,1.577,0C35.382,36.911,35.382,36.205,34.946,35.77z M38.388,39.211c-0.435-0.436-1.142-0.435-1.578,0   c-0.436,0.436-0.436,1.143,0,1.577c0.438,0.435,1.144,0.435,1.578-0.001C38.823,40.353,38.823,39.647,38.388,39.211z M42.455,8.172   l-0.067-1.289L25.009,23.522l-1.262,1.208l1.211-1.265l17.35-18.119L42.024,0L22.895,21.181l-2.063,2.284l-0.052,0.057   l-0.994,1.101l-1.846,2.043l3.011,3.012l1.944-1.944l3.109-3.108L42.455,8.172z M17.08,27.526l-2.151-2.151l-0.86,0.861   l7.742,7.742l0.86-0.86l-2.58-2.581L17.08,27.526z M14.929,28.817l4.301,4.301L8.048,44.3l-0.099-0.1   c-0.123,0.241-0.273,0.473-0.474,0.674L7.331,45.02c-1.029,1.028-2.698,1.028-3.727,0L3.03,44.446c-1.029-1.03-1.029-2.699,0-3.728   l0.143-0.146c0.202-0.202,0.432-0.353,0.673-0.476l-0.099-0.098L14.929,28.817z M8.98,39.211c-0.436-0.436-1.142-0.436-1.578,0   c-0.435,0.436-0.435,1.143,0,1.576c0.436,0.436,1.143,0.436,1.578,0.001C9.415,40.352,9.415,39.645,8.98,39.211z M12.42,35.769   c-0.435-0.434-1.142-0.434-1.577,0.001c-0.435,0.434-0.435,1.14,0,1.577c0.435,0.435,1.142,0.435,1.577,0   C12.855,36.911,12.855,36.205,12.42,35.769z M14.284,32.329c-0.435,0.435-0.435,1.142,0,1.577s1.142,0.436,1.577,0.001   c0.435-0.437,0.435-1.144,0-1.578C15.426,31.894,14.719,31.895,14.284,32.329z" fill="#eb0505" data-original="#030104" class=""/>
</g>
<g xmlns="http://www.w3.org/2000/svg">
</g>
<g xmlns="http://www.w3.org/2000/svg">
</g>
<g xmlns="http://www.w3.org/2000/svg">
</g>
<g xmlns="http://www.w3.org/2000/svg">
</g>
<g xmlns="http://www.w3.org/2000/svg">
</g>
<g xmlns="http://www.w3.org/2000/svg">
</g>
<g xmlns="http://www.w3.org/2000/svg">
</g>
<g xmlns="http://www.w3.org/2000/svg">
</g>
<g xmlns="http://www.w3.org/2000/svg">
</g>
<g xmlns="http://www.w3.org/2000/svg">
</g>
<g xmlns="http://www.w3.org/2000/svg">
</g>
<g xmlns="http://www.w3.org/2000/svg">
</g>
<g xmlns="http://www.w3.org/2000/svg">
</g>
<g xmlns="http://www.w3.org/2000/svg">
</g>
<g xmlns="http://www.w3.org/2000/svg">
</g>
</g></svg>
