<svg id="Layer_1" height="512" viewBox="0 0 512 512" width="512" xmlns="http://www.w3.org/2000/svg" data-name="Layer 1"><path d="m504 456.51v55.49h-144v-55.49a32.521 32.521 0 0 1 29.84-32.4c.88-.07 1.77-.11 2.67-.11h78.98c.9 0 1.79.04 2.67.11a32.521 32.521 0 0 1 29.84 32.4z" fill="#b21839"/><path d="m320 272s32 4.571 32-51.429h-320c0 56 32 51.429 32 51.429z" fill="#bab9b9"/><path d="m320 240 56-34a184.081 184.081 0 0 0 -128-175.324h-112a184.081 184.081 0 0 0 -128 175.324l56 34z" fill="#5b223c"/><path d="m448 424v-32a32 32 0 0 0 -32-32h-88a32 32 0 0 0 -32 32v37.654a10.346 10.346 0 0 1 -10.346 10.346h-53.51c-7.924 0-16.144-8.076-16.144-16v-40c58.327-11.936 104-68.144 104-130v-40.332a93.668 93.668 0 0 0 -93.668-93.668h-68.664a93.668 93.668 0 0 0 -93.668 93.668v40.332c0 62.49 44.778 118.767 104 130v56a32 32 0 0 0 32 32h96a32 32 0 0 0 32-32v-32c0-10.161 5.839-16 16-16h56c9.892 0 16 6.108 16 16v16" fill="#e0e0e0"/><circle cx="136" cy="230" fill="#ea2f4e" r="24"/><circle cx="248" cy="230" fill="#ea2f4e" r="24"/><path d="m169.14 204.116c-8.542-14.238-20.235-22.023-34.753-23.14a48.9 48.9 0 0 0 -19.416 2.451l-5.941-14.855a64.651 64.651 0 0 1 26.584-3.549c13.741 1.057 33.092 7.269 47.247 30.86z" fill="#5b223c"/><path d="m214.86 204.116-13.721-8.232c14.155-23.591 33.506-29.8 47.247-30.86a64.624 64.624 0 0 1 26.584 3.549l-5.907 14.869c-1.382-.542-34.118-12.801-54.203 20.674z" fill="#5b223c"/><path d="m192 88v32" fill="none" stroke="#231f20" stroke-linejoin="round" stroke-width="16"/><g opacity=".3"><path d="m53.422 144.817h16v32.262h-16z" fill="#fff" transform="matrix(.555 -.832 .832 .555 -106.566 122.778)"/></g><g opacity=".3"><path d="m301.406 144.166h36.522v16h-36.522z" fill="#fff" transform="matrix(.894 -.447 .447 .894 -34.302 159.043)"/></g><path d="m360 512v-55.488a32.512 32.512 0 0 1 32.512-32.512h78.977a32.512 32.512 0 0 1 32.511 32.512v55.488" fill="#b21839"/><path d="m232 120 18.675-87.151a20.544 20.544 0 0 0 -20.088-24.849h-77.174a20.544 20.544 0 0 0 -20.088 24.849l18.675 87.151" fill="#682647"/><path d="m411.31 496h60.69v16h-80a8 8 0 0 1 -5.66-13.66l34.94-34.93-31.44-39.3c.88-.07 1.77-.11 2.67-.11h17.74l21.75 27.19 21.75-27.19h17.74c.9 0 1.79.04 2.67.11l-35.91 44.89c-.19.23-.39.45-.59.66z" fill="#d12c58"/><path d="m240 288a48 48 0 0 1 -96 0z" fill="#870a2a"/><path d="m160 288h16v16h-16z" fill="#f26180"/><path d="m208 288h16v16h-16z" fill="#f26180"/><path d="m153.413 8a20.544 20.544 0 0 0 -20.088 24.849l18.675 87.151h23v-112z" fill="#fff" opacity=".2"/><path d="m122 294v-166.963a93.691 93.691 0 0 0 -58 86.631v40.332c0 59.69 40.856 113.707 96.129 128.218-39.896-27.903-38.129-88.218-38.129-88.218z" fill="#fff" opacity=".2"/><path d="m384 456h16v56h-16z" fill="#961537"/><path d="m464 456h16v56h-16z" fill="#961537"/><path d="m168 384s29 5 48 0v12s-24 13.667-48 11.333z" fill="#bab9b9"/></svg>