<svg id="Capa_1" enable-background="new 0 0 512 512" height="512" viewBox="0 0 512 512" width="512" xmlns="http://www.w3.org/2000/svg"><g><g><path d="m256 7.5c-137.242 0-248.5 111.257-248.5 248.5s111.258 248.5 248.5 248.5c35.578 0 69.4-7.492 100-20.96v-455.08c-30.599-13.467-64.422-20.96-100-20.96z" fill="#e8b5b1"/><path d="m356 28.46c-12.192 5.366-23.873 11.677-34.945 18.851-68.335 44.28-113.555 121.2-113.555 208.689s45.22 164.41 113.555 208.689c11.072 7.174 22.753 13.485 34.945 18.852 87.44-38.485 148.5-125.875 148.5-227.54s-61.059-189.056-148.5-227.541z" fill="#f2d4d3"/></g><g><path d="m410.503 101.497c-25.437-25.436-56.045-43.817-89.448-54.186h-80l-113.555 208.689 113.555 208.689h80c33.404-10.369 64.012-28.749 89.448-54.186 41.269-41.269 63.997-96.139 63.997-154.503s-22.728-113.233-63.997-154.503z" fill="#efedff"/><path d="m101.498 101.497c-41.269 41.27-63.998 96.14-63.998 154.503s22.728 113.233 63.997 154.503c41.27 41.269 96.14 63.997 154.503 63.997 22.391 0 44.263-3.358 65.055-9.811-68.335-44.279-113.555-121.199-113.555-208.689s45.22-164.409 113.555-208.688c-20.792-6.454-42.664-9.812-65.055-9.812-58.363 0-113.233 22.728-154.502 63.997z" fill="#d4d4ff"/></g><g><path d="m425.648 257.64c-17.141-14.983-40.511-19.882-61.675-18.805 23.951-9.903 44.274-23.817 54.02-46.948 10.276-24.39-7.305-52.202-34.299-53.145l-4.187-.146.146-4.186c.943-27.019-25.595-46.465-50.622-37.923-22.867 7.805-37.436 25.599-48.817 47.139h-24.214v202.653l53.121 5c23.758 23.373 48.924 34.7 78.375 31.182 26.116-3.119 41.596-32.45 28.887-56.353l-1.966-3.698 3.699-1.967c23.828-12.671 27.474-45.372 7.532-62.803z" fill="#ffb5c0"/><path d="m280.214 143.624c1.107-21.273-1.823-40.691-14.8-57.815-15.986-21.094-48.861-19.772-63.173 3.133l-2.22 3.553-3.553-2.22c-22.928-14.327-53.037-1.067-58.154 24.878-1.89 9.583-1.834 19.711.507 29.845 2.81 12.172 9.356 26.265 18.209 39.561 2.872 4.312-1.171 9.832-6.164 8.448-69.542-19.27-93.125 34.827-66.797 63.061l2.857 3.064-3.064 2.857c-23.7 22.101-14.214 68.027 37.938 69.847 21.634.755 51.742-7.828 74.742-22.241-15.983 21.939-26.646 51.375-27.401 73.009-1.827 52.251 43.398 64.754 67.03 42.718l3.064-2.857 2.857 3.064c28.37 30.423 83.909 9.14 67.03-74.25-52.212-54.608-66.342-142.03-28.908-207.655z" fill="#ff8e9e"/></g><g><path d="m176.154 332.208-20-20-125.473 125.472v56.13l8.755 8.755c4.254 1.286 8.659 1.935 13.065 1.935 11.517 0 23.033-4.394 31.82-13.18l125.473-125.473z" fill="#d6948c"/><path d="m50.681 457.68 125.473-125.473-30-30-125.473 125.473c-17.574 17.574-17.574 46.066 0 63.64 5.425 5.425 11.891 9.169 18.755 11.245-4.649-15.37-.904-32.736 11.245-44.885z" fill="#ce857a"/></g><g><path d="m236.412 294.782h-74.412v41.734c0 8.409 3.341 16.474 9.287 22.42l5.082 5.082 16.612 16.612c18.63 18.63 50.441 10.106 57.26-15.343l11.977-44.699z" fill="#efedff"/><path d="m191.713 306.759 44.699-11.977-45-45-44.699 11.977c-25.449 6.819-33.973 38.63-15.343 57.26l44.999 44.999c-18.628-18.63-10.105-50.44 15.344-57.259z" fill="#d4d4ff"/></g><g><path d="m296 180.995h-40l-45 75.005 45 75.005h40c26.776-14.309 45-42.525 45-75.005s-18.224-60.696-45-75.005z" fill="#efedff"/><path d="m251 256c0-32.481 18.224-60.696 45-75.005-11.923-6.372-25.536-9.995-40-9.995-46.944 0-85 38.056-85 85s38.056 85 85 85c14.464 0 28.077-3.623 40-9.995-26.775-14.309-45-42.524-45-75.005z" fill="#d4d4ff"/></g><g><g><g><ellipse cx="215.789" cy="226.649" fill="#ff8e9e" rx="17.812" ry="22.367" transform="matrix(.707 -.707 .707 .707 -97.062 218.971)"/></g><g><ellipse cx="285.352" cy="296.212" fill="#ff8e9e" rx="17.812" ry="22.367" transform="matrix(.707 -.707 .707 .707 -125.876 288.531)"/></g></g></g><g><path d="m240.029 204.869c-2.929-2.929-7.678-2.929-10.606 0l-8.485 8.485c-2.929 2.929-2.929 7.678 0 10.606 2.929 2.929 7.678 2.929 10.606 0l8.485-8.485c2.929-2.928 2.929-7.677 0-10.606z"/><path d="m298.646 291.064 8.485-8.485c2.929-2.929 2.929-7.678 0-10.606-2.929-2.929-7.678-2.929-10.606 0l-8.485 8.485c-2.929 2.929-2.929 7.678 0 10.606 2.929 2.929 7.677 2.929 10.606 0z"/><path d="m272.2 271.081c4.133-.284 7.252-3.864 6.969-7.996-.284-4.133-3.865-7.247-7.996-6.969-8.669.603-15.886-6.584-15.288-15.288.284-4.132-2.836-7.712-6.969-7.996-4.126-.292-7.712 2.836-7.996 6.969-1.22 17.76 13.514 32.503 31.28 31.28z"/><path d="m448.069 86.759c-2.74-3.106-7.479-3.403-10.586-.662-3.105 2.74-3.402 7.479-.662 10.586 38.807 43.988 60.179 100.569 60.179 159.317 0 132.888-108.112 241-241 241-46.113 0-90.59-12.954-129.207-37.547l10.854-10.854c35.442 21.866 76.224 33.401 118.353 33.401 60.409 0 117.173-23.495 159.837-66.156 42.666-42.663 66.163-99.43 66.163-159.844 0-124.994-100.984-226-226-226-124.91 0-226 101.081-226 226 0 42.129 11.535 82.911 33.4 118.354l-10.854 10.854c-24.591-38.617-37.546-83.094-37.546-129.208 0-132.887 108.113-241 241-241 59.193 0 116.126 21.688 160.312 61.07 3.092 2.756 7.833 2.483 10.589-.609s2.483-7.833-.608-10.589c-46.937-41.834-107.415-64.872-170.293-64.872-141.491 0-256 114.498-256 256 0 50.1 14.405 98.381 41.703 140.051l-26.326 26.326c-9.916 9.916-15.377 23.1-15.377 37.124 0 29.013 23.48 52.499 52.5 52.499 14.023 0 27.207-5.461 37.123-15.377l3.482-3.482c2.929-2.929 2.929-7.678 0-10.606-2.929-2.929-7.678-2.929-10.606 0l-3.482 3.482c-7.083 7.082-16.5 10.983-26.517 10.983-20.724 0-37.5-16.771-37.5-37.5 0-10.017 3.901-19.434 10.984-26.517l104.372-104.372c48.57 48.575 49.025 49.032 53.033 53.034l-79.6 79.6c-2.929 2.929-2.929 7.678 0 10.606 2.929 2.929 7.678 2.929 10.606 0l1.555-1.555c41.67 27.3 89.951 41.704 140.05 41.704 68.285 0 132.526-26.59 180.89-74.872 48.436-48.353 75.11-112.679 75.11-181.128 0-62.406-22.705-122.51-63.931-169.241zm-403.069 169.241c0-116.62 94.371-211 211-211 116.346 0 211 94.654 211 211s-94.654 211-211 211c-38.135 0-75.077-10.116-107.432-29.322l20.15-20.15c14.797 28.32 48.569 32.828 70.145 15.381 31.51 29.62 90.75 6.413 79.141-65.634 23.481 17.529 47.692 25.335 70.382 22.631 30.119-3.597 48.579-36.247 36.022-64.443 33.393-20.859 32.367-79.149-33.231-92.192 16.153-10.416 27.253-23.103 33.729-38.474 11.822-28.061-7.127-60.113-37.757-63.329-1.074-30.835-31.767-51.9-60.541-42.082-15.54 5.304-28.48 14.914-39.802 29.733-2.092-14.62-7.144-26.926-15.415-37.841-18.401-24.282-55.628-23.876-73.722 1.034-41.251-21.942-98.601 23.707-49.572 102.233-16.687-3.989-31.734-4.149-44.807-.466-36.76 10.359-47.573 49.262-26.813 74.69-22.333 23.923-14.857 65.797 25.04 77.467l-27.194 27.194c-19.207-32.353-29.323-69.296-29.323-107.43zm149.683 135.564c23.327 15.072 55.403 3.285 62.804-24.335l5.09-18.996c30.572-2.142 56.938-19.02 72.24-43.81 41.246 13.405 38.488 12.667 40.158 12.667 3.16 0 6.101-2.015 7.131-5.184 1.28-3.939-.875-8.171-4.814-9.451l-35.584-11.565c12.38-30.399 7.893-66.07-13.642-92.81l22.681-21.654c2.996-2.86 3.106-7.608.246-10.604-2.861-2.997-7.609-3.106-10.604-.246l-22.64 21.614c-25.014-22.469-59.632-29.281-90.633-19.065l-8.032-31.388c-1.027-4.013-5.112-6.432-9.125-5.407-4.013 1.027-6.434 5.112-5.407 9.125l8.596 33.592c-27.653 14.519-47.1 42.623-49.41 75.386l-18.965 5.081c-27.981 7.499-39.236 39.785-24.345 62.814l-6.314 6.314c-38.106-5.507-42.898-39.606-25.136-56.169l3.063-2.857c3.027-2.823 3.195-7.572.37-10.6l-2.857-3.063c-21.576-23.139-2.207-68.545 60.737-50.313 11.236 3.251 20.353-9.372 13.773-19.061-13.891-20.453-22.887-42.175-18.391-64.974 4.114-20.862 28.345-31.513 46.821-19.968l3.553 2.22c3.512 2.195 8.139 1.126 10.334-2.386l2.22-3.553c11.557-18.496 38.008-19.505 50.835-2.578 9.833 12.975 13.98 28.038 13.447 48.841-.227 8.841 11.593 12.093 15.909 4.364 11.955-21.409 25.511-34.106 42.662-39.96 20.082-6.854 41.466 8.743 40.704 30.565l-.146 4.187c-.145 4.139 3.095 7.611 7.233 7.756l4.187.146c21.799.762 35.895 23.166 27.649 42.738-6.949 16.497-20.176 28.959-41.622 39.219-8.945 4.277-6.153 17.71 3.74 18.063 28.087 1.011 60.908 15.447 57.653 43.644-1.192 10.341-7.118 19.059-16.258 23.918l-3.699 1.968c-3.656 1.944-5.045 6.485-3.101 10.142l1.966 3.699c10.397 19.556-2.594 42.929-23.154 45.384-25.586 3.058-49.139-11.078-64.396-23.472-9.139-7.424-22.533.777-20.104 12.285 13.408 63.51-32.952 79.724-54.529 56.587l-2.857-3.064c-2.834-3.039-7.584-3.183-10.6-.371l-3.064 2.857c-15.062 14.043-41.649 10.984-51.024-13.62zm-16.168-136.118c.3-42.478 34.938-76.946 77.485-76.946 42.733 0 77.5 34.767 77.5 77.5 0 39.517-30.228 75.902-77.515 77.5-44.495-.008-78.516-37.481-77.47-78.054zm-41.842 58.27c-.311-.311-.603-.634-.896-.956-.029-.03-.054-.063-.083-.092-.006-.006-.014-.012-.02-.018-13.239-14.715-6.371-38.461 12.98-43.646l15.278-4.093c.321 3.339.816 6.628 1.484 9.855l-17.391 9.974c-3.593 2.061-4.835 6.644-2.774 10.237s6.644 4.836 10.237 2.774l14.31-8.207c3.773 9.663 9.127 18.539 15.741 26.313l-8.086 8.086c-4.74 4.739-1.317 12.803 5.303 12.803 1.919 0 3.839-.732 5.303-2.197l8.086-8.086c7.667 6.522 16.403 11.823 25.911 15.586l-7.899 14.634c-1.968 3.645-.608 8.195 3.037 10.162 3.643 1.968 8.194.609 10.162-3.037l9.358-17.336c3.395.723 6.858 1.26 10.378 1.598l-4.093 15.277c-5.2 19.408-29.182 26.324-43.879 12.753l-.354-.319c-.635-.586-61.482-61.455-62.093-62.065z"/></g></g></svg>