<svg id="Capa_1" enable-background="new 0 0 512 512" height="512" viewBox="0 0 512 512" width="512" xmlns="http://www.w3.org/2000/svg"><g id="XMLID_1859_"><path id="XMLID_1057_" d="m256 502c-120.951 0-219-98.049-219-219v-85.787c0-103.395 83.818-187.213 187.213-187.213h63.574c103.395 0 187.213 83.818 187.213 187.213v85.787c0 120.951-98.049 219-219 219z" fill="#ff7d97"/><g fill="#fff"><path id="XMLID_1020_" d="m296.837 75.168h-81.675c-51.466 0-96.965 33.435-112.338 82.551l-4.04 12.907c-17.468 55.809 24.222 112.542 82.701 112.542h149.029c58.479 0 100.169-56.733 82.701-112.542l-4.04-12.907c-15.372-49.116-60.872-82.551-112.338-82.551z"/><path id="XMLID_1187_" d="m256 448c-11.046 0-20-8.954-20-20v-78c0-11.046 8.954-20 20-20 11.046 0 20 8.954 20 20v78c0 11.046-8.954 20-20 20z"/><path id="XMLID_1186_" d="m344 431.667c11.046 0 20-8.954 20-20v-59c0-11.046-8.954-20-20-20-11.046 0-20 8.954-20 20v59c0 11.045 8.954 20 20 20z"/><path id="XMLID_1185_" d="m168 431.667c-11.046 0-20-8.954-20-20v-59c0-11.046 8.954-20 20-20 11.046 0 20 8.954 20 20v59c0 11.045-8.954 20-20 20z"/></g><circle id="XMLID_1029_" cx="319.878" cy="168.754" fill="#6d92ac" r="40"/><circle id="XMLID_1380_" cx="192.122" cy="168.754" fill="#6d92ac" r="40"/><g id="XMLID_36_"><path id="XMLID_588_" d="m287.787 0h-63.574c-108.743 0-197.213 88.47-197.213 197.213v85.787c0 61.168 23.82 118.675 67.072 161.928 43.253 43.252 100.76 67.072 161.928 67.072s118.675-23.82 161.928-67.072c43.252-43.253 67.072-100.76 67.072-161.928v-85.787c0-108.743-88.47-197.213-197.213-197.213zm177.213 283c0 115.243-93.757 209-209 209s-209-93.757-209-209v-85.787c0-97.716 79.497-177.213 177.213-177.213h63.574c97.716 0 177.213 79.497 177.213 177.213z"/><path id="XMLID_833_" d="m301.485 65.252c-5.468-.216-10.155 4.112-10.355 9.632-.2 5.519 4.112 10.155 9.632 10.354 45.523 1.647 85.257 31.976 98.87 75.468l4.039 12.907c7.365 23.53 3.216 48.421-11.385 68.29s-37.116 31.265-61.773 31.265h-149.028c-24.656 0-47.172-11.396-61.772-31.265-14.601-19.869-18.75-44.76-11.386-68.29l4.04-12.907c13.645-43.592 53.471-73.923 99.102-75.476 5.52-.188 9.842-4.814 9.654-10.334-.188-5.521-4.806-9.863-10.334-9.654-54.107 1.841-101.33 37.804-117.508 89.489l-4.04 12.907c-9.287 29.67-4.055 61.056 14.355 86.108 18.41 25.053 46.799 39.421 77.889 39.421h149.029c31.09 0 59.479-14.368 77.889-39.421s23.643-56.439 14.355-86.108l-4.04-12.907c-16.14-51.567-63.252-87.526-117.233-89.479z"/><path id="XMLID_836_" d="m256 320c-16.542 0-30 13.458-30 30v78c0 16.542 13.458 30 30 30s30-13.458 30-30v-78c0-16.542-13.458-30-30-30zm10 108c0 5.514-4.486 10-10 10s-10-4.486-10-10v-78c0-5.514 4.486-10 10-10s10 4.486 10 10z"/><path id="XMLID_839_" d="m344 322.667c-16.542 0-30 13.458-30 30v59c0 16.542 13.458 30 30 30s30-13.458 30-30v-59c0-16.542-13.458-30-30-30zm10 89c0 5.514-4.486 10-10 10s-10-4.486-10-10v-59c0-5.514 4.486-10 10-10s10 4.486 10 10z"/><path id="XMLID_844_" d="m168 322.667c-16.542 0-30 13.458-30 30v59c0 16.542 13.458 30 30 30s30-13.458 30-30v-59c0-16.542-13.458-30-30-30zm10 89c0 5.514-4.486 10-10 10s-10-4.486-10-10v-59c0-5.514 4.486-10 10-10s10 4.486 10 10z"/><path id="XMLID_847_" d="m319.878 218.754c27.57 0 50-22.43 50-50s-22.43-50-50-50-50 22.43-50 50 22.43 50 50 50zm0-80c16.542 0 30 13.458 30 30s-13.458 30-30 30-30-13.458-30-30 13.458-30 30-30z"/><path id="XMLID_850_" d="m142.122 168.754c0 27.57 22.43 50 50 50s50-22.43 50-50-22.43-50-50-50-50 22.43-50 50zm80 0c0 16.542-13.458 30-30 30s-30-13.458-30-30 13.458-30 30-30 30 13.458 30 30z"/><path id="XMLID_857_" d="m213.691 243.168c0 5.522 4.477 10 10 10 12.05 0 23.479-4.419 32.309-12.175 8.83 7.757 20.259 12.175 32.309 12.175 5.522 0 10-4.478 10-10 0-5.523-4.478-10-10-10-9.644 0-18.624-4.771-24.021-12.765-3.092-4.577-9.307-5.783-13.884-2.69-1.095.739-1.991 1.661-2.687 2.693l-.003-.003c-5.398 7.993-14.378 12.765-24.021 12.765-5.524 0-10.002 4.477-10.002 10z"/><path id="XMLID_872_" d="m319.88 178.75c2.63 0 5.21-1.061 7.07-2.931 1.859-1.859 2.93-4.43 2.93-7.069 0-2.63-1.07-5.21-2.93-7.07s-4.44-2.93-7.07-2.93-5.21 1.069-7.07 2.93c-1.87 1.87-2.93 4.44-2.93 7.07s1.06 5.21 2.93 7.069c1.86 1.87 4.43 2.931 7.07 2.931z"/><path id="XMLID_873_" d="m256.13 85.17c2.63 0 5.21-1.07 7.07-2.93 1.859-1.86 2.93-4.44 2.93-7.07s-1.07-5.21-2.93-7.07c-1.86-1.859-4.44-2.93-7.07-2.93-2.64 0-5.21 1.07-7.07 2.93-1.87 1.86-2.93 4.44-2.93 7.07s1.06 5.21 2.93 7.07c1.86 1.86 4.43 2.93 7.07 2.93z"/></g></g></svg>