<?xml version="1.0"?>
<svg xmlns="http://www.w3.org/2000/svg" viewBox="0 0 64 64" width="512" height="512"><g id="flat"><path d="M32,3C22.059,3,14,14.193,14,28V61H50V28C50,14.193,41.941,3,32,3Z" style="fill:#394d5c"/><ellipse cx="32" cy="21" rx="13" ry="18" style="fill:#f4f4e6"/><ellipse cx="27" cy="18" rx="3" ry="2" style="fill:#394d5c"/><ellipse cx="37" cy="18" rx="3" ry="2" style="fill:#394d5c"/><path d="M36,32H28a1,1,0,0,1,0-2h8a1,1,0,0,1,0,2Z" style="fill:#f98c96"/><path d="M33,36H31a1,1,0,0,1,0-2h2a1,1,0,0,1,0,2Z" style="fill:#f98c96"/><path d="M24,50V44a3,3,0,0,0-3-3h0a3,3,0,0,0-3,3v9a2.382,2.382,0,0,0,1.98,2.283l8.656,1.236A2.947,2.947,0,0,0,32,53.6h0a2.948,2.948,0,0,0-2.582-2.925Z" style="fill:#f4f4e6"/><path d="M40,50V44a3,3,0,0,1,3-3h0a3,3,0,0,1,3,3v9a2.382,2.382,0,0,1-1.98,2.283l-8.656,1.236A2.947,2.947,0,0,1,32,53.6h0a2.948,2.948,0,0,1,2.582-2.925Z" style="fill:#f4f4e6"/><rect x="45" y="31" width="2" height="4" style="fill:#aabece"/><rect x="45" y="58" width="2" height="3" style="fill:#aabece"/><rect x="45" y="37" width="2" height="2" style="fill:#aabece"/><polygon points="25 14 29 14 27 8 25 14" style="fill:#f98c96"/><polygon points="35 14 39 14 37 8 35 14" style="fill:#f98c96"/><polygon points="39 22 35 22 37 28 39 22" style="fill:#f98c96"/><polygon points="29 22 25 22 27 28 29 22" style="fill:#f98c96"/></g></svg>
