<svg id="Layer_2" height="512" viewBox="0 0 64 64" width="512" xmlns="http://www.w3.org/2000/svg" data-name="Layer 2"><path d="m36 9a15.93 15.93 0 0 1 5-6 16.073 16.073 0 0 1 9-3 15.008 15.008 0 0 1 0 15l-.222.37" fill="#e90d39"/><path d="m42.905 11.125a1 1 0 0 1 -.8-1.6l3.095-4.125a1 1 0 1 1 1.6 1.2l-3.094 4.125a1 1 0 0 1 -.801.4z" fill="#970524"/><path d="m28 9a15.93 15.93 0 0 0 -5-6 16.073 16.073 0 0 0 -9-3 15.008 15.008 0 0 0 0 15l.242.343" fill="#e90d39"/><path d="m21.095 11.125a1 1 0 0 1 -.8-.4l-3.095-4.125a1 1 0 1 1 1.6-1.2l3.094 4.125a1 1 0 0 1 -.8 1.6z" fill="#970524"/><path d="m53 25v15.69a12.621 12.621 0 0 1 -.08 1.51 15.947 15.947 0 0 1 -7.04 11.8l-11.63 9.33a4.035 4.035 0 0 1 -4.22.14c-.08-.05-.15-.09-.22-.14l-11.69-9.33a15.947 15.947 0 0 1 -7.04-11.8 12.621 12.621 0 0 1 -.08-1.51v-15.69a16 16 0 0 1 16-16h10a16 16 0 0 1 16 16z" fill="#d0d2d3"/><g opacity=".3"><path d="m30 9 .03 54.472c-.08-.05-.15-.09-.22-.14l-11.69-9.332a16 16 0 0 1 -7.12-13.31v-15.69a16 16 0 0 1 16-16z" fill="#f0f1f1"/></g><path d="m28 36v-2.955a7 7 0 0 0 -4.786-6.645l-7.214-2.4s2 11 12 12z" fill="#470718"/><path d="m36 36v-2.955a7 7 0 0 1 4.786-6.645l7.214-2.4s-2 11-12 12z" fill="#470718"/><g fill="#e90d39"><path d="m21.82 41.57a1.011 1.011 0 0 1 -.82.43.988.988 0 0 1 -.57-.18l-9.43-6.6v-2.22a.988.988 0 0 1 .57.18l10 7a.989.989 0 0 1 .25 1.39z"/><path d="m18.87 45.5a1.013 1.013 0 0 1 -1.37.37l-6.42-3.67a12.621 12.621 0 0 1 -.08-1.51v-.69a1.009 1.009 0 0 1 .5.13l7 4a1.01 1.01 0 0 1 .37 1.37z"/><path d="m53 33v2.22l-9.43 6.6a.988.988 0 0 1 -.57.18 1.011 1.011 0 0 1 -.82-.43.989.989 0 0 1 .25-1.39l10-7a.988.988 0 0 1 .57-.18z"/><path d="m53 40v.69a12.621 12.621 0 0 1 -.08 1.51l-6.42 3.67a1 1 0 0 1 -1-1.74l7-4a1.009 1.009 0 0 1 .5-.13z"/><path d="m28 51.115a4.989 4.989 0 0 1 -2.481-.667l-2.983-1.562.928-1.771 3.016 1.58a3 3 0 0 0 4.52-2.588v-5.107h2v5.107a5.018 5.018 0 0 1 -5 5.008z"/><path d="m36.008 51.117a5.009 5.009 0 0 1 -2.517-.685 4.951 4.951 0 0 1 -2.491-4.325v-5.107h2v5.107a3 3 0 0 0 4.488 2.6l3.048-1.6.928 1.771-3.016 1.58a4.9 4.9 0 0 1 -2.44.659z"/><path d="m27 21h-4a1 1 0 0 1 0-2h4a1 1 0 0 1 0 2z"/><path d="m41 21h-4a1 1 0 0 1 0-2h4a1 1 0 0 1 0 2z"/></g><path d="m37 15h-1a1 1 0 0 1 0-2h1a1 1 0 0 1 0 2z" fill="#a6a8ab"/><path d="m41 15h-1a1 1 0 0 1 0-2h1a1 1 0 0 1 0 2z" fill="#a6a8ab"/></svg>