<svg id="Capa_1" enable-background="new 0 0 512 512" height="512" viewBox="0 0 512 512" width="512" xmlns="http://www.w3.org/2000/svg"><g><path d="m274.455 76.939c.619-.89.007-2.11-1.076-2.144l-40.102-1.254c-.63-.02-1.164-.468-1.292-1.085l-14.355-68.894c-.2-.959-1.316-1.4-2.12-.838l-44.905 31.429c-.586.41-1.388.3-1.84-.252l-26.962-32.934c-.702-.858-2.082-.563-2.376.507l-14.567 53.047c-.291 1.061-1.652 1.363-2.362.524l-46.146-54.562c-.607-.717-1.741-.62-2.22.19l-13.929 23.56c-.305.517-.912.774-1.495.636l-42.247-10.06c-.991-.236-1.884.657-1.648 1.648l10.056 42.252c.139.583-.119 1.189-.636 1.495l-23.56 13.928c-.81.479-.907 1.613-.19 2.22l54.567 46.141c.839.709.537 2.07-.524 2.362l-53.047 14.568c-1.07.294-1.365 1.673-.508 2.375l32.93 26.967c.552.452.662 1.254.252 1.84l-31.425 44.9c-.563.804-.122 1.92.838 2.12l68.89 14.359c.617.129 1.065.662 1.084 1.292l1.254 40.102c.034 1.083 1.254 1.695 2.144 1.076l54.836-38.119c.856-.595 2.035-.053 2.138.984l3.11 31.4c.114 1.147 1.509 1.644 2.325.828l43.133-87.071 87.066-43.128c.816-.816.319-2.211-.828-2.325l-31.4-3.11c-1.037-.103-1.579-1.282-.984-2.138z" fill="#ee6161"/><g><path d="m274.455 76.939c.619-.89.007-2.11-1.076-2.144l-40.102-1.254c-.63-.02-1.164-.468-1.292-1.085l-14.355-68.894c-.2-.959-1.316-1.4-2.12-.838l-25.597 17.915 11.165 59.793c.128.617.662 1.065 1.292 1.085l40.102 1.254c1.083.034 1.695 1.254 1.076 2.144l-38.119 46.86c-.595.856-.053 2.035.984 2.138l15.115 2.275c1.147.114 1.644 1.509.828 2.325l-62.956 31.163s-25.59 66.606-25.487 67.643l3.11 31.4c.114 1.147 1.509 1.644 2.325.828l43.133-87.071 87.067-43.128c.816-.816.319-2.211-.828-2.325l-31.4-3.11c-1.037-.103-1.579-1.282-.984-2.138z" fill="#e94444"/></g><path d="m218.641 208.03-48.634-48.634 21.174-79.616c1.064-4.003-1.317-8.111-5.32-9.176-4.001-1.065-8.111 1.318-9.176 5.32l-18.939 71.21-42.63-42.63c-2.928-2.929-7.677-2.929-10.606 0s-2.929 7.678 0 10.606l42.629 42.63-71.21 18.939c-4.003 1.064-6.385 5.173-5.32 9.176.893 3.357 3.926 5.574 7.243 5.574.638 0 1.287-.082 1.933-.254l79.616-21.175 48.634 48.634c1.464 1.465 3.384 2.197 5.303 2.197s3.839-.732 5.303-2.197c2.929-2.926 2.929-7.675 0-10.604z" fill="#d83131"/><path d="m427.604 511.729c.977.679 2.315.007 2.352-1.18l1.376-43.989c.022-.691.513-1.277 1.19-1.418l75.572-15.746c1.052-.219 1.536-1.443.919-2.325l-34.476-49.257c-.45-.643-.329-1.522.277-2.018l36.126-29.576c.941-.77.618-2.283-.556-2.606l-58.188-15.98c-1.164-.32-1.495-1.812-.575-2.59l59.851-50.619c.787-.665.68-1.91-.208-2.435l-25.844-15.279c-.567-.335-.849-1-.697-1.64l11.035-46.342c.259-1.087-.721-2.067-1.808-1.808l-46.348 11.031c-.64.152-1.305-.13-1.64-.697l-15.279-25.844c-.525-.889-1.77-.995-2.435-.208l-50.613 59.856c-.778.92-2.271.589-2.591-.575l-15.98-58.188c-.322-1.174-1.835-1.497-2.606-.557l-29.581 36.122c-.496.606-1.376.726-2.018.276l-49.252-34.471c-.882-.617-2.106-.134-2.325.919l-15.751 75.567c-.141.677-.727 1.168-1.418 1.19l-43.989 1.375c-1.188.037-1.859 1.375-1.18 2.352l41.814 60.151c.653.939.058 2.233-1.08 2.345l-34.444 3.412c-1.258.125-1.803 1.655-.908 2.55l95.511 47.313 47.308 95.506c.895.895 2.426.35 2.55-.908l3.412-34.444c.113-1.137 1.406-1.733 2.345-1.08z" fill="#ee6161"/><g><path d="m510.382 363.614-58.188-15.98c-1.164-.32-1.495-1.812-.575-2.59l59.851-50.619c.787-.665.68-1.91-.208-2.435l-25.844-15.279c-.567-.335-.85-1-.697-1.64l11.035-46.342c.259-1.087-.721-2.067-1.808-1.808l-30.71 7.309-9.424 39.574c-.152.64.13 1.305.697 1.64l25.844 15.279c.889.525.995 1.77.208 2.435l-59.851 50.619c-.92.778-.589 2.271.575 2.59l58.188 15.98c1.174.322 1.497 1.835.557 2.606l-36.126 29.576c-.606.496-.726 1.376-.277 2.018l34.476 49.257c.617.882.134 2.106-.919 2.325l-75.572 15.746c-.677.141-1.168.727-1.19 1.418l-.843 26.958 28.021 19.479c.976.679 2.315.007 2.352-1.18l1.376-43.989c.022-.691.513-1.277 1.19-1.418l75.572-15.746c1.052-.219 1.536-1.443.919-2.325l-34.476-49.257c-.45-.643-.329-1.522.277-2.018l36.126-29.576c.942-.771.619-2.284-.556-2.607z" fill="#e94444"/></g><path d="m428.528 405.186-79.332-21.099 47.654-47.654c2.929-2.929 2.929-7.678 0-10.606-2.93-2.929-7.678-2.929-10.607 0l-47.654 47.654-21.098-79.332c-1.064-4.002-5.172-6.387-9.176-5.32-4.003 1.064-6.385 5.173-5.32 9.176l23.334 87.737-59.007 59.007c-2.929 2.929-2.929 7.678 0 10.606 1.465 1.464 3.385 2.197 5.304 2.197s3.839-.732 5.304-2.197l59.006-59.006 87.737 23.334c.646.172 1.294.254 1.933.254 3.316 0 6.351-2.217 7.243-5.574 1.064-4.004-1.318-8.113-5.321-9.177z" fill="#d83131"/></g></svg>