<?xml version="1.0"?>
<svg xmlns="http://www.w3.org/2000/svg" xmlns:xlink="http://www.w3.org/1999/xlink" xmlns:svgjs="http://svgjs.com/svgjs" version="1.1" width="512" height="512" x="0" y="0" viewBox="0 0 60 60" style="enable-background:new 0 0 512 512" xml:space="preserve" class=""><g transform="matrix(1,0,0,1,1.4210854715202004e-14,1.7763568394002505e-14)"><g xmlns="http://www.w3.org/2000/svg" id="013---Japan" fill="none"><g id="Icons" transform="translate(1 1)"><path id="Shape" d="m23.83 40.2c-.1102743.2881556-.347389.5092735-.6425331.599185-.295144.0899114-.6152663.0385478-.8674669-.139185-5.27-3.66-19.65-15.55-21.63-21.98-2.45-7.91 2.2-15.57 10.12-18 7.914027-2.43882381 16.3071421 1.99721731 18.75 9.91 2.11 6.81-3.96 24.88-5.73 29.61z" fill="#8dd95b" data-original="#c81e1e" style="" class=""/><path id="Shape" d="m21 39.71c-5.39-4-18.4-14.8-20.32-21-2.82-9.11 3.9-17.66 13-18.6 6.0056008.59625468 11.0689883 4.73365299 12.85 10.5 2.07 6.57-3.53 23.72-5.53 29.1z" fill="#3e9504" data-original="#f44335" style="" class=""/><path id="Shape" d="m16.42 18.87c-2.6620125.8284271-5.4915728-.6579876-6.3199999-3.32-.82842714-2.6620125.6579874-5.4915728 3.3199999-6.32 2.6647739-.82842712 5.4965729.66022608 6.325 3.325.8284271 2.6647739-.6602261 5.4965729-3.325 6.325z" fill="#fdd834" data-original="#fdd834" style=""/><path id="Shape" d="m13.42 18.87c-2.0969156-.6699124-3.52012988-2.6186736-3.52012988-4.82s1.42321428-4.1500876 3.52012988-4.82c2.1684151.5981187 3.6704888 2.5706067 3.6704888 4.82s-1.5020737 4.2218813-3.6704888 4.82z" fill="#ffeb3a" data-original="#ffeb3a" style=""/><g fill="#60a917"><path id="Shape" d="m14.42 57.59c-2.15-2.16 4.59-7.71 8-5 1.58 1.25 1 4-1 4-1 0-2-1-3 0s-3 2-4 1z" fill="#cb4b4a" data-original="#60a917" style="" class=""/><path id="Shape" d="m3 58c-2 0-3-1-2-3s-1-3-1-5 2.61-2 4.61-2 3 2 2 5-1.61 5-3.61 5z" fill="#cb4b4a" data-original="#60a917" style="" class=""/><path id="Shape" d="m58 5c0 .84-1.68 1.68-3.35 4.2s-2.52 2.51-4.2 1.67c-2-1.06-2.51-.5-2.51.84 0 1.7-2.53 1.66-3.36 0s0-3.35 1.68-5-1.68-6.71 1.68-6.71c1.67 0 5 1.68 7.54 2.52.18.06.35.12.51.19 2.01.76 2.01 1.54 2.01 2.29z" fill="#cb4b4a" data-original="#60a917" style="" class=""/></g><path id="Shape" d="m47.45 10.9c-2.91-1.54-2.34.54-2.57 1.26.81 1 2.28 1.1 2.84.32.31-.42.16-.75.27-1.33-.17-.07-.35-.15-.54-.25z" fill="#bb0909" data-original="#549414" style="" class=""/><path id="Shape" d="m56 2.71c-.16-.07-.33-.13-.51-.19-3.62-1.21-7.39-3.4-8.69-2.14 1.73.54 3.92 1.55 5.69 2.14.18.06.35.12.51.19 2 .76 2 1.54 2 2.32s-1.68 1.68-3.35 4.2c-.3692723.59095512-.8129 1.1320464-1.32 1.61 1.78.89 2.6 1 4.32-1.61s3.35-3.36 3.35-4.23 0-1.53-2-2.29z" fill="#bb0909" data-original="#549414" style="" class=""/><path id="Shape" d="m50 34c0 3.78.45 8.09-1 11-1 2.07-4 1.92-4-1 0-.77 2-4 0-4-.8141494.0840118-1.5688432.4649186-2.12 1.07-1.6848243 1.6810811-3.6823676 3.0161738-5.88 3.93-3 1.18-6.22 2.07-7.57 3.41-.2609976.2564601-.6412269.3498914-.9913609.2436007-.3501341-.1062907-.6142566-.3953287-.6886391-.7536007-.66-2.64-1.67-3.69-4.83-2.93-1.89.44-4.09 1.42-5.92 2-3 1-3 2-6-1 0 0-2.78-1.46 1-4 1.68-1.13 6.85-2.12 8.8-2.45 0 0 .69.52 1.52 1.11.2522006.1777328.5723229.2290964.8674669.139185.2951441-.0899115.5322588-.3110294.6425331-.599185l.44-1.17c6.93-.11 5.46-4.39 5.83-6 .27-1.3 1.09-1.81 1.9-1 1.66 1.66 3.31 2.69 5 1 2-2 2-4 3-9 .59-2.95 2-7 5-7 4 0 7 3 7 8s-2 4-2 9z" fill="#cb4b4a" data-original="#60a917" style="" class=""/><path id="Shape" d="m14 47c-.52.17-.94.35-1.31.5 1.49 1 2 .28 4.31-.5 1.83-.61 4-1.59 5.91-2-2.02-.93-5.86 1-8.91 2z" fill="#bb0909" data-original="#549414" style="" class=""/><path id="Shape" d="m42 40c-.8141494.0840118-1.5688432.4649186-2.12 1.07-1.6848243 1.6810811-3.6823676 3.0161738-5.88 3.93-2.1547045.7395061-4.2707275 1.5872503-6.34 2.54 0 .13.06.24.09.36.0743825.358272.338505.64731.6886391.7536007.350134.1062907.7303633.0128594.9913609-.2436007 1.35-1.34 4.57-2.23 7.57-3.41 2.1968053-.9108518 4.1942886-2.2425073 5.88-3.92.06-.61-.12-1.08-.88-1.08z" fill="#bb0909" data-original="#549414" style="" class=""/><path id="Shape" d="m52 25c0-5-3-8-7-8-.3957219.0004226-.7871409.0821101-1.15.24 3.04.76 5.15 3.57 5.15 7.76 0 5-2 4-2 9 0 3.11.55 9.65-1.52 11.69.93 1.22 2.79.76 3.52-.69 1.45-2.91 1-7.22 1-11 0-5 2-4 2-9z" fill="#bb0909" data-original="#549414" style="" class=""/></g><g id="Layer_5" fill="#000"><path id="Shape" d="m14.72 59.3c1.46 1.46 4 .43 5.41-1 .19-.19.26-.22 1 0 .4184178.1628867.8612744.2541625 1.31.27 2.95 0 3.95-3.94 1.62-5.78-4.31-3.39-12.53 3.33-9.34 6.51zm7.7-2.71c-.66 0-2.24-1.17-3.7.29-1 1-2.88 1.63-2.71.57.15-.89 1.48-2.27 2.86-3 1.2-.6 2.89-.94 3.93-.11.85.71.64 2.25-.38 2.25z" fill="#000000" data-original="#000000" style="" class=""/><path id="Shape" d="m1.11 55.56c-1.28 2.54-.01 4.44 2.89 4.44s3.59-2.79 4.56-5.69c1.35-4.05-.56-6.31-2.95-6.31-2.1 0-5.61 0-5.61 3 0 2.29 1.8 3.18 1.11 4.56zm4.5-5.56c1.66 0 1.58 2.1 1 3.68l-.08.25c-.96 3.07-1.41 4.07-2.53 4.07-.82 0-1.23-.2-1.34-.38s-.08-.54.23-1.18c1.25-2.44-.89-3.89-.89-5.44 0-.83 1.27-1 3.61-1z" fill="#000000" data-original="#000000" style="" class=""/><path id="Shape" d="m56.48 10.79c1.76-2.65 3.52-3.29 3.52-4.79s-.52-2.57-3.2-3.47c-3.66-1.18-8.06-3.83-9.8-1.73-.81 1-.59 2.34-.38 3.69.16 1 .35 2.15 0 2.52-2.19 2.19-2.82 4.27-1.86 6.19 1.3 2.6 5.25 2.33 5.25-.45-.0076128-.1232159-.0076128-.2467841 0-.37.3475768.1033249.6828824.2441532 1 .42 2.34 1.2 3.67.69 5.47-2.01zm-4.58.21c-1.06-.53-2.17-.94-3.06-.39-.6417424.5114774-.9805524 1.3133277-.9 2.13 0 .14 0 .2-.19.24-.5286784.0724998-1.0431267-.2070036-1.27-.69-.35-.68-.56-1.83 1.48-3.88 1.09-1.08.82-2.76.59-4.24-.11-.69-.29-1.84-.08-2.08 0 0 .14-.09.47-.09 1.39 0 4.82 1.66 7.23 2.46 1.83.62 1.83 1 1.83 1.48-1.135834 1.18578371-2.2041825 2.43441608-3.2 3.74-1.38 2.09-1.71 1.93-2.9 1.32z" fill="#000000" data-original="#000000" style="" class=""/><path id="Shape" d="m14.15 9.27c-2.6168093.806462-4.36570134 3.2699846-4.26400332 6.0063562.10169803 2.7363716 2.02862782 5.0632812 4.69808022 5.6732778s5.4158026-.6490218 6.6959231-3.069634c1.1225905-2.1638225.8418202-4.7892966-.712953-6.6667997-1.5547731-1.87750308-4.0818913-2.64276111-6.417047-1.9432003zm5.36 7.73c-.8789795 1.5490275-2.6762387 2.3303044-4.4085133 1.9164011-1.7322745-.4139033-2.9822165-1.9232672-3.0659938-3.7023322-.0837774-1.7790651 1.018794-3.3992103 2.7045071-3.9740689 1.5722728-.5361734 3.3123023-.0447672 4.371827 1.2346589s1.2180014 3.0805556.398173 4.5253411z" fill="#000000" data-original="#000000" style="" class=""/><path id="Shape" d="m16 6c2.8206632.02566677 5.4695805 1.35936154 7.17 3.61.2161457.28581249.5683517.4346018.9239454.3903204.3555937-.04428146.660552-.27490616.8-.60500006s.0922003-.70950787-.1239454-.99532034c-2.0852326-2.74441874-5.3233972-4.36903957-8.77-4.4-.5522847 0-1 .44771525-1 1s.4477153 1 1 1z" fill="#000000" data-original="#000000" style="" class=""/><path id="Shape" d="m24.58 12.39c.2677062.8445841.4092326 1.7240694.42 2.61 0 .5522847.4477153 1 1 1s1-.4477153 1-1c-.0031399-1.0851105-.1682943-2.1636699-.49-3.2-.1752947-.5110565-.7248268-.7904645-1.2410434-.6310049s-.8124296.7001187-.6689566 1.2210049z" fill="#000000" data-original="#000000" style="" class=""/><path id="Shape" d="m54 26c0-5.3-3.29-9-8-9-1.65 0-4.62 1-6 7.8-1 4.82-1 6.73-2.73 8.49-1 1-1.87.71-3.58-1-1.42-1.43-3.69-.62-3.69 2.71 0 1.7 0 3.45-3.29 3.89 2.09-6.13 6.79-21.19 4.81-27.61-1.2468205-4.05683941-4.0619008-7.44789519-7.82-9.42-12.08-6.38-27.13 4.63-22.97 18.14 1.83 5.9 12.76 15.3 18.7 20-2.56.52-5.63 1.28-7 2.2-1.66 1.1-2.43 2.27-2.43 3.46.084286.8900289.5899851 1.6857614 1.36 2.14 2.49 2.47 3.39 2.57 5.57 1.68 1.49-.62.77-.27 3.47-1.29 2.21-.84 5-1.88 6.13-1.29.6984709.5388277 1.1435239 1.3420942 1.23 2.22.1565486.7090517.6851057 1.2775524 1.3808953 1.4852508.6957896.2076983 1.4494922.0219618 1.9691047-.4852508.89-.83 2.89-1.57 4.89-2.29 3.58-1.31 5-1.87 8.06-4.57.81-.73 1.3-1.15 1.82-1.23-.12.87-.88 2.25-.88 3 0 4 4.4 4.43 5.89 1.44 1.29-2.57 1.22-6 1.14-9.26s-.11-4.29.86-6.24c.821231-1.5226102 1.2053896-3.2426717 1.11-4.97zm-51.36-6.61c-3.64-11.79 9.62-21.31 20.13-15.76 3.2882108 1.72872684 5.7503766 4.69844439 6.84 8.25 1.9 6.18-3.44 22.87-5.71 29-5.09-3.61-19.35-15.32-21.26-21.49zm48.47 10.67c-1.25 2.5-1.11 4.05-1.11 7.18s.14 6.19-.92 8.32c-.55 1.1-2.1 1.32-2.11-.5.1-.66 1.49-3 .57-4.31-.3501267-.4982825-.9318248-.781577-1.54-.75-2.59 0-3.42 3.09-8.37 5.07-3 1.2-6.37 2.1-7.9 3.61-.66-3-2.19-4-4.07-4-2.39 0-5.49 1.5-8 2.33-3 1-2.5 1.71-5-.76-.16-.16-.68-.39-.69-.75s.38-.94 1.54-1.71 4.83-1.66 8-2.22c.44.33 1 .72 1.2.87.5046472.3470517 1.1404914.4437439 1.725492.2623937.5850007-.1813502 1.0546572-.6207476 1.274508-1.1923937 0 0 .14-.36.22-.59 6-.36 6-4.12 6-6-.0247895-.4580223.0645508-.9150319.26-1.33.92.92 3.71 3.71 6.42 1 2.39-2.12 2.39-4.34 3.39-9.39.78-3.88 2.28-6.19 4-6.19 3.65 0 6 2.74 6 7 .0909342 1.4068971-.2175889 2.8108504-.89 4.05z" fill="#000000" data-original="#000000" style="" class=""/></g></g></g></svg>
