<svg id="Capa_1" enable-background="new 0 0 512 512" height="512" viewBox="0 0 512 512" width="512" xmlns="http://www.w3.org/2000/svg"><g><path d="m512 256c0 141.385-114.615 256-256 256s-256-114.615-256-256 114.615-256 256-256c96.759 0 180.981 53.681 224.507 132.886.315.573-.85 2.25-.54 2.826 1.807 3.35 3.542 6.744 5.203 10.182.328.679 2.131.258 2.454.94 15.634 33.113 24.376 70.119 24.376 109.166z" fill="#55a4f9"/><path d="m316.505 457.095c-111.062 33.416-228.184-29.528-261.6-140.589s29.528-228.184 140.59-261.6c111.062-33.416 228.184 29.528 261.6 140.589s-29.528 228.184-140.59 261.6z" fill="#2e5aac"/><path d="m426.759 378.252c-2.559.878-5.145 1.71-7.758 2.497-111.062 33.416-228.184-29.528-261.6-140.59-19.497-64.799-6.191-131.661 30.336-182.758 2.559-.877 5.145-1.71 7.758-2.496 111.062-33.416 228.184 29.528 261.6 140.589 19.497 64.8 6.19 131.662-30.336 182.758z" fill="#4172cc"/><path d="m464.797 195.092c-.004-.013-.007-.026-.011-.039-.078-.268-.157-.537-.237-.805-.021-.071-.042-.141-.063-.212-.07-.234-.139-.469-.209-.703-.05-.167-.102-.333-.152-.5-.04-.133-.081-.266-.121-.398-.078-.256-.157-.511-.236-.766-.069-.223-.139-.447-.208-.671-.052-.165-.103-.329-.155-.494-.102-.322-.204-.644-.307-.966-.027-.085-.054-.169-.082-.254-4.525-14.077-10.364-27.475-17.476-40.122-19.994-35.635-49.712-64.935-86.578-84.748-50.776-27.288-109.081-33.337-164.33-17.077-.433.127-.865.256-1.298.386-55.633 16.739-101.417 54.14-128.92 105.314-19.789 36.822-28.407 77.602-25.45 118.306 1.076 15.01 3.74 29.937 7.985 44.691.004.015.009.03.013.045.119.413.239.826.361 1.239.012.042.025.084.037.125.12.408.241.815.364 1.222.113.376.228.752.343 1.127.036.118.073.237.109.355.086.279.173.558.26.837.085.273.172.546.258.818.04.126.08.253.12.379 17.237 54.044 54.132 98.482 104.224 125.403 51.175 27.502 109.996 33.43 165.628 16.691s101.417-54.14 128.919-105.315c27.213-50.633 33.302-108.756 17.212-163.868zm-11.101 104.925c-25.114 14.505-52.478 27.978-81.261 40.062 2.714-31.817-.079-66.205-8.781-100.7 30.507-13.457 59.23-28.355 85.443-44.369.016.049.031.099.047.148.063.201.126.402.188.604.066.212.132.422.197.634.129.419.257.838.383 1.259.105.35.209.701.313 1.051.031.106.063.212.094.318.088.301.175.601.262.901.057.197.113.394.169.591.036.125.071.25.107.375 9.154 32.361 10.131 66.489 2.839 99.126zm-140.157 147.22c-27.669-5.725-55.152-22.004-79.98-47.369 20.327-4.512 40.721-9.831 60.939-15.914 20.218-6.084 40.162-12.901 59.603-20.355-6.708 34.853-20.644 63.596-40.562 83.638zm-23.363-77.649c-22.66 6.818-45.538 12.658-68.275 17.457-20.939-24.767-37.949-54.842-49.9-88.197 29.803-5.651 60.071-13.062 90.231-22.136 30.16-9.075 59.492-19.597 87.465-31.329 8.438 34.412 10.848 68.88 7.052 101.088-21.611 8.546-43.913 16.3-66.573 23.117zm-227.085-52.009c-.044-.136-.087-.272-.13-.409-.059-.188-.119-.375-.178-.563-.093-.299-.186-.597-.279-.896-.033-.106-.065-.211-.098-.317-.107-.35-.214-.699-.319-1.049-.126-.418-.25-.836-.373-1.254-.066-.225-.131-.45-.196-.675-.056-.192-.112-.384-.167-.576-.014-.05-.028-.101-.043-.151 30.698-1.108 62.873-4.534 95.74-10.145 11.777 33.571 28.423 63.79 48.243 88.827-30.672 5.805-60.926 9.669-89.874 11.43-24.089-23.194-42.104-52.19-52.326-84.222zm93.776-163.427c6.24-37.446 20.592-68.255 41.595-89.389 29.177 6.035 58.147 23.808 84.013 51.595 1.91 2.052 3.792 4.147 5.643 6.283-22.326 4.782-44.776 10.55-67.052 17.252-22.275 6.702-44.181 14.28-65.439 22.612.366-2.802.779-5.587 1.24-8.353zm65.682-97.883c45.327-7.626 90.69.635 129.392 21.435 15.04 8.083 29.074 18.062 41.708 29.737-28.753 2.002-58.619 5.982-88.85 11.807-23.927-29.524-52.309-51.56-82.25-62.979zm-82.707 112.611c-28.425 11.823-55.528 24.984-80.612 39.18 14.629-59.693 56.122-111.189 114.455-137.09-18.67 26.046-30.18 60.085-33.843 97.91zm-1.098 16.738c-1.14 32.44 3.263 67.094 13.612 101.509-32.57 5.468-64.407 8.738-94.715 9.676-4.833-23.352-5.395-46.712-2.185-69.219 25.636-15.215 53.678-29.324 83.288-41.966zm27.992 97.239c-10.501-34.9-14.803-70.235-12.72-103.573 23.08-9.295 46.996-17.692 71.372-25.026s48.956-13.529 73.334-18.513c20.133 26.654 36.043 58.496 46.543 93.397.164.544.325 1.087.486 1.631-28.039 11.84-57.506 22.448-87.839 31.574-30.333 9.127-60.762 16.54-90.679 22.138-.169-.542-.334-1.084-.497-1.628zm192.877-58.089c-10.36-34.412-25.81-65.742-44.661-92.168 31.67-5.796 62.843-9.503 92.618-10.96 15.096 17 27.518 36.794 36.372 58.933-25.793 15.942-54.149 30.783-84.329 44.195zm-228.227 190.912c27.586-2.316 56.158-6.422 85.009-12.191 16.695 18.432 35.216 33.35 54.7 43.821 6.044 3.248 12.183 6.068 18.389 8.434-44.15 7.493-89.266.169-129.345-21.371-10.193-5.478-19.797-11.735-28.753-18.693zm206.91 25.377c16.342-22.787 27.201-51.697 32.118-83.91 27.245-11.109 53.339-23.45 77.623-36.741-3.629 10.745-8.187 21.263-13.664 31.456-21.539 40.078-55.123 71.082-96.077 89.195z" fill="#203e76"/><path d="m119.657 360-3.591 29.257c-2.338 19.046-25.576 27.048-39.145 13.479-13.569-13.568-5.567-36.807 13.479-39.145z" fill="#ff72c3"/><path d="m310.905 427.931-3.591 29.257c-2.338 19.046-25.576 27.048-39.145 13.479-13.569-13.568-5.567-36.807 13.479-39.145z" fill="#ffaee0"/><path d="m487.672 146.936-34.368 34.368c-1.406 1.406-3.314 2.196-5.303 2.196h-32.893l-44.155 44.155c.031.277.048.559.048.845v60c0 4.143-3.358 7.5-7.5 7.5s-7.5-3.357-7.5-7.5v-45.893l-58.197 58.197c-.169.168-.343.327-.523.476-1.376 1.662-3.454 2.72-5.78 2.72h-36.893l-43.304 43.304c-1.464 1.464-3.384 2.196-5.303 2.196s-3.839-.732-5.303-2.196c-2.929-2.93-2.929-7.678 0-10.607l32.695-32.697h-21.893c-4.142 0-7.5-3.357-7.5-7.5s3.358-7.5 7.5-7.5h76.893l105.5-105.5h-210.893c-4.142 0-7.5-3.357-7.5-7.5s3.358-7.5 7.5-7.5h226.804c1.732-.666 3.66-.666 5.392 0h29.698l35.613-35.614c2.527 4.599 4.917 9.284 7.165 14.05z" fill="#ac8a67"/><path d="m266.88 120.377c-.506 3.318-1.784 6.623-3.948 9.69l-18.589 26.344-18.589-26.344c-2.164-3.067-3.442-6.372-3.948-9.69-1.907-12.499 12.303-21.055 22.537-13.631 10.234-7.424 24.444 1.132 22.537 13.631zm-12.092 227.66c3.899-12.028-8.63-22.898-19.928-17.222-2.999 1.507-5.747 3.743-7.996 6.749l-19.31 25.82 30.799 9.538c3.586 1.111 7.124 1.304 10.436.76 12.476-2.047 16.223-18.206 5.999-25.645zm122.555-77.29c-10.234-7.425-24.444 1.132-22.537 13.631.506 3.318 1.784 6.623 3.948 9.69l18.589 26.344 18.589-26.344c2.164-3.067 3.442-6.372 3.948-9.69 1.907-12.5-12.303-21.056-22.537-13.631z" fill="#ffaee0"/><path d="m206.654 167.01c2.36-2.387 5.336-4.309 8.89-5.519l30.523-10.387-.446 32.239c-.052 3.754-.961 7.178-2.502 10.16-5.804 11.233-22.329 9.803-26.245-2.22-12.642-.007-19.109-15.282-10.22-24.273zm-23.779 233.275c3.915 12.022 20.441 13.452 26.245 2.22 1.541-2.982 2.45-6.406 2.502-10.16l.446-32.239-30.523 10.387c-3.554 1.209-6.53 3.132-8.89 5.519-8.89 8.989-2.423 24.264 10.22 24.273zm167-45c3.915 12.022 20.441 13.452 26.245 2.22 1.541-2.982 2.45-6.406 2.502-10.16l.446-32.239-30.523 10.387c-3.554 1.209-6.53 3.132-8.89 5.519-8.89 8.989-2.423 24.264 10.22 24.273z" fill="#ff72c3"/><path d="m282.032 167.01c8.89 8.991 2.423 24.266-10.221 24.274-3.915 12.022-20.441 13.453-26.245 2.22-1.541-2.982-2.45-6.406-2.502-10.16l-.381-27.582-26.35 8.16c-3.586 1.11-7.124 1.304-10.436.76-12.477-2.048-16.223-18.207-5.999-25.646-3.899-12.027 8.63-22.898 19.928-17.222 2.999 1.507 5.747 3.743 7.996 6.749l17.561 23.481 27.759 9.446c3.555 1.211 6.53 3.134 8.89 5.52zm-42.889 203.482-27.759-9.446-17.561-23.481c-2.248-3.006-4.996-5.242-7.996-6.749-11.298-5.676-23.827 5.194-19.928 17.222-10.224 7.439-6.478 23.598 5.999 25.646 3.312.544 6.85.35 10.436-.76l26.35-8.16.381 27.582c.052 3.754.961 7.178 2.502 10.16 5.804 11.233 22.329 9.802 26.245-2.22 12.644-.009 19.111-15.283 10.221-24.274-2.361-2.388-5.336-4.311-8.89-5.52zm175.889-39.482c-2.36-2.387-5.336-4.309-8.89-5.519l-27.759-9.446-17.561-23.481c-2.248-3.006-4.996-5.242-7.996-6.749-11.298-5.676-23.827 5.194-19.928 17.222-10.224 7.439-6.478 23.598 5.999 25.646 3.312.544 6.85.35 10.436-.76l26.35-8.16.381 27.582c.052 3.754.961 7.178 2.502 10.16 5.804 11.233 22.329 9.802 26.245-2.22 12.644-.009 19.111-15.284 10.221-24.275z" fill="#ff94d2"/><path d="m282.789 164.683c-3.312.544-6.85.35-10.436-.76l-30.799-9.539 19.31-25.82c2.248-3.006 4.996-5.242 7.996-6.749 11.298-5.676 23.827 5.194 19.928 17.222 10.224 7.439 6.477 23.598-5.999 25.646zm-72.446 151.064c-10.234-7.425-24.444 1.131-22.537 13.63.506 3.318 1.784 6.623 3.948 9.69l18.589 26.344 18.589-26.344c2.164-3.067 3.442-6.372 3.948-9.69 1.907-12.499-12.303-21.055-22.537-13.63zm211.445-12.71c3.899-12.027-8.63-22.898-19.928-17.222-2.999 1.507-5.747 3.743-7.996 6.749l-19.31 25.82 30.799 9.539c3.586 1.11 7.124 1.304 10.436.76 12.476-2.048 16.223-18.207 5.999-25.646z" fill="#ffc7e7"/><path d="m264.83 152.228c0 11.314-9.172 20.487-20.487 20.487s-20.487-9.172-20.487-20.487c0-11.314 9.172-20.487 20.487-20.487s20.487 9.172 20.487 20.487zm-54.487 188.513c-11.314 0-20.487 9.172-20.487 20.487s9.172 20.487 20.487 20.487 20.487-9.172 20.487-20.487-9.172-20.487-20.487-20.487zm167-45c-11.314 0-20.487 9.172-20.487 20.487s9.172 20.487 20.487 20.487c11.314 0 20.487-9.172 20.487-20.487s-9.172-20.487-20.487-20.487z" fill="#ff50b5"/><path d="m252.414 152.228c0 4.457-3.613 8.07-8.07 8.07s-8.07-3.613-8.07-8.07 3.613-8.07 8.07-8.07 8.07 3.613 8.07 8.07zm-42.071 200.929c-4.457 0-8.07 3.613-8.07 8.07s3.613 8.07 8.07 8.07 8.07-3.613 8.07-8.07-3.612-8.07-8.07-8.07zm167-45c-4.457 0-8.07 3.613-8.07 8.07s3.613 8.07 8.07 8.07 8.07-3.613 8.07-8.07-3.612-8.07-8.07-8.07z" fill="#a91e6a"/><path d="m173.955 263.462-49.525-6.079c-28.481-3.496-42.372-34.601-29.39-57.642.481-.853 1.715-.876 2.216-.035 5.563 9.341 13.466 17.691 23.803 24.216l46.4 29.29c3.593 2.269 5.978 6.032 6.496 10.25z" fill="#ff72c3"/><path d="m173.917 263.155-54.123-34.164c-11.904-7.514-20.103-17.809-24.782-29.202 1.718-3.058 3.908-5.976 6.6-8.668 22.968-22.968 62.305-9.423 66.263 22.817z" fill="#ff94d2"/><path d="m374.56 50.943c2.929 2.929 2.929 7.677 0 10.607l-10.607 10.606c-2.929 2.929-7.678 2.929-10.607 0-2.929-2.929-2.929-7.678 0-10.606l10.607-10.607c2.93-2.929 7.678-2.929 10.607 0zm-290.154 288.93c-2.929-2.929-2.929-7.677 0-10.607l10.607-10.606c2.929-2.929 7.678-2.929 10.607 0 2.929 2.929 2.929 7.678 0 10.606l-10.607 10.607c-2.929 2.929-7.678 2.929-10.607 0zm-14.36-193.934c-2.929-2.929-7.677-2.929-10.606 0s-2.929 7.678 0 10.606l10.606 10.607c2.929 2.929 7.678 2.929 10.607 0s2.929-7.678 0-10.607zm297.863 252.965c-2.929-2.929-7.678-2.929-10.607 0l-10.607 10.606c-2.929 2.929-2.929 7.678 0 10.606 2.929 2.929 7.677 2.929 10.606 0l10.607-10.607c2.93-2.928 2.93-7.677.001-10.605z" fill="#fff5f5"/></g></svg>